<svg xmlns="http://www.w3.org/2000/svg" xmlns:xlink="http://www.w3.org/1999/xlink" width="324" height="87.815" viewBox="0 0 324 87.815">
  <defs>
    <linearGradient id="linear-gradient" x1="2.168" y1="-0.307" x2="2.34" y2="-0.307" gradientUnits="objectBoundingBox">
      <stop offset="0" stop-color="#fff"/>
      <stop offset="0.1" stop-color="#070707"/>
      <stop offset="0.2" stop-color="#0f0f0f"/>
      <stop offset="0.3" stop-color="#161616"/>
      <stop offset="0.4" stop-color="#1e1e1e"/>
      <stop offset="0.5" stop-color="#262626"/>
      <stop offset="0.6" stop-color="#2d2d2d"/>
      <stop offset="0.7" stop-color="#353535"/>
      <stop offset="0.8" stop-color="#3d3d3d"/>
      <stop offset="0.9" stop-color="#444"/>
      <stop offset="1" stop-color="#4c4c4c"/>
    </linearGradient>
    <clipPath id="clip-path">
      <path id="パス_57" data-name="パス 57" d="M262.755-33.724a3.5,3.5,0,0,1,.27-1.365,3.466,3.466,0,0,1,.75-1.125,3.466,3.466,0,0,1,1.125-.75,3.5,3.5,0,0,1,1.365-.27,3.5,3.5,0,0,1,1.365.27,3.466,3.466,0,0,1,1.125.75,3.466,3.466,0,0,1,.75,1.125,3.5,3.5,0,0,1,.27,1.365,3.5,3.5,0,0,1-.27,1.365,3.466,3.466,0,0,1-.75,1.125,3.466,3.466,0,0,1-1.125.75,3.5,3.5,0,0,1-1.365.27,3.5,3.5,0,0,1-1.365-.27,3.466,3.466,0,0,1-1.125-.75,3.466,3.466,0,0,1-.75-1.125A3.5,3.5,0,0,1,262.755-33.724Z" fill="url(#linear-gradient)"/>
    </clipPath>
    <clipPath id="clip-path-2">
      <path id="パス_59" data-name="パス 59" d="M278.655-46.234v15.39h-5.43v-15.39Zm-5.79-5.91a2.953,2.953,0,0,1,.24-1.185,3.112,3.112,0,0,1,.66-.975,3.112,3.112,0,0,1,.975-.66,2.953,2.953,0,0,1,1.185-.24,2.953,2.953,0,0,1,1.185.24,3.112,3.112,0,0,1,.975.66,3.112,3.112,0,0,1,.66.975,2.953,2.953,0,0,1,.24,1.185,2.953,2.953,0,0,1-.24,1.185,3.112,3.112,0,0,1-.66.975,3.112,3.112,0,0,1-.975.66,2.953,2.953,0,0,1-1.185.24,2.953,2.953,0,0,1-1.185-.24,3.112,3.112,0,0,1-.975-.66,3.112,3.112,0,0,1-.66-.975A2.953,2.953,0,0,1,272.865-52.144Z" fill="url(#linear-gradient)"/>
    </clipPath>
    <clipPath id="clip-path-3">
      <path id="パス_61" data-name="パス 61" d="M282.375-46.234h5.43v1.95a5.945,5.945,0,0,1,2.25-1.815,7.039,7.039,0,0,1,2.67-.465,6.671,6.671,0,0,1,2.775.525,5.534,5.534,0,0,1,1.965,1.485,4.267,4.267,0,0,1,.9,1.74,9.062,9.062,0,0,1,.24,2.19v9.78h-5.43v-7.77a8.367,8.367,0,0,0-.165-1.845,2.286,2.286,0,0,0-.585-1.125,2.057,2.057,0,0,0-.81-.51,3.016,3.016,0,0,0-.96-.15,2.684,2.684,0,0,0-2.115.825,3.425,3.425,0,0,0-.735,2.355v8.22h-5.43Z" fill="url(#linear-gradient)"/>
    </clipPath>
    <clipPath id="clip-path-4">
      <path id="パス_63" data-name="パス 63" d="M313.9-41.254a5.024,5.024,0,0,0-2.85-.96,3.881,3.881,0,0,0-1.455.27,3.606,3.606,0,0,0-1.185.765,3.519,3.519,0,0,0-.8,1.17,3.86,3.86,0,0,0-.285,1.515,3.78,3.78,0,0,0,.285,1.485,3.635,3.635,0,0,0,.78,1.17,3.411,3.411,0,0,0,1.185.765,4,4,0,0,0,1.47.27,4.489,4.489,0,0,0,2.85-1.05v4.62a9.6,9.6,0,0,1-3.81.87,9,9,0,0,1-3.2-.57,8.108,8.108,0,0,1-2.67-1.635,8.028,8.028,0,0,1-1.845-2.55,7.773,7.773,0,0,1-.69-3.315,8.287,8.287,0,0,1,.66-3.345,8.011,8.011,0,0,1,1.8-2.61,8.146,8.146,0,0,1,2.715-1.71,9.2,9.2,0,0,1,3.375-.615,8.069,8.069,0,0,1,3.66.84Z" fill="url(#linear-gradient)"/>
    </clipPath>
  </defs>
  <g id="グループ_78" data-name="グループ 78" transform="translate(-3174 619.815)">
    <path id="パス_53" data-name="パス 53" d="M50.027-40.993H27.359l-6.172,28.35A43.874,43.874,0,0,1,.248-50.3,43.9,43.9,0,0,1,44.377-93.929,43.9,43.9,0,0,1,88.009-49.8,43.9,43.9,0,0,1,43.881-6.168l-1.425-.044Z" transform="translate(3173.752 -525.885)" fill="#fff" fill-rule="evenodd"/>
    <path id="パス_54" data-name="パス 54" d="M50.849-70.568c-5.272-3.086,4.507-5.888,7-6.674-14.357-1.707-23.188,1.339-28.43,7.222-5.979,5.854-5.517,15.67.549,21.434A15.168,15.168,0,0,0,51.4-49.134C57.161-55.2,57.32-65.263,50.849-70.568Z" transform="translate(3173.752 -525.885)" fill="#eb8e96" fill-rule="evenodd"/>
    <path id="パス_55" data-name="パス 55" d="M27.359-40.993H50.027L42.455-6.212a43.63,43.63,0,0,1-21.268-6.431Z" transform="translate(3173.752 -525.885)" fill-rule="evenodd"/>
    <g id="グループ_47" data-name="グループ 47" transform="translate(3272.132 -556.729)">
      <g id="グループ">
        <text id="IW" fill="#fff" font-size="64" font-family="Phosphate-Solid, Phosphate"><tspan x="0" y="0">IW</tspan></text>
        <text id="AKI" transform="translate(67.968)" fill="#fff" font-size="64" font-family="Phosphate-Solid, Phosphate"><tspan x="0" y="0">AKI</tspan></text>
      </g>
    </g>
    <g id="グループ_50" data-name="グループ 50" transform="translate(3180.752 -525.885)" clip-path="url(#clip-path)">
      <g id="グループ_49" data-name="グループ 49" transform="matrix(0.322, 0.947, -0.947, 0.322, 659.815, 200.251)">
        <path id="パス_56" data-name="パス 56" d="M-495.846,528.351l134.824-396.662,93.909,31.919L-401.937,560.27Z" fill="url(#linear-gradient)"/>
      </g>
    </g>
    <g id="グループ_52" data-name="グループ 52" transform="translate(3180.752 -525.885)" clip-path="url(#clip-path-2)">
      <g id="グループ_51" data-name="グループ 51" transform="matrix(0.322, 0.947, -0.947, 0.322, 659.815, 200.251)">
        <path id="パス_58" data-name="パス 58" d="M-495.846,528.351l134.824-396.662,93.909,31.919L-401.937,560.27Z" fill="url(#linear-gradient)"/>
      </g>
    </g>
    <g id="グループ_54" data-name="グループ 54" transform="translate(3180.752 -525.885)" clip-path="url(#clip-path-3)">
      <g id="グループ_53" data-name="グループ 53" transform="matrix(0.322, 0.947, -0.947, 0.322, 659.815, 200.251)">
        <path id="パス_60" data-name="パス 60" d="M-495.846,528.351l134.824-396.662,93.909,31.919L-401.937,560.27Z" fill="url(#linear-gradient)"/>
      </g>
    </g>
    <g id="グループ_56" data-name="グループ 56" transform="translate(3180.752 -525.885)" clip-path="url(#clip-path-4)">
      <g id="グループ_55" data-name="グループ 55" transform="matrix(0.322, 0.947, -0.947, 0.322, 659.815, 200.251)">
        <path id="パス_62" data-name="パス 62" d="M-495.846,528.351l134.824-396.662,93.909,31.919L-401.937,560.27Z" fill="url(#linear-gradient)"/>
      </g>
    </g>
    <path id="パス_64" data-name="パス 64" d="M105.93-90.286c-2.688-1.574,2.3-3,3.568-3.4-7.322-.87-11.825.683-14.5,3.683a7.64,7.64,0,0,0,.28,10.93,7.735,7.735,0,0,0,10.931-.28C109.149-82.449,109.23-87.581,105.93-90.286Z" transform="translate(3180.752 -524.885)" fill="#eb8e96" fill-rule="evenodd"/>
    <path id="パス_65" data-name="パス 65" d="M255.295-89.022c-2.688-1.574,2.3-3,3.568-3.4-7.322-.87-11.825.683-14.5,3.683a7.64,7.64,0,0,0,.28,10.931,7.735,7.735,0,0,0,10.93-.28C258.514-81.185,258.6-86.317,255.295-89.022Z" transform="translate(3180.752 -525.885)" fill="#eb8e96" fill-rule="evenodd"/>
    <text id="CODING_DESIGN_SERVICE" data-name="CODING &amp; DESIGN SERVICE" transform="translate(3272 -552)" fill="#fff" font-size="18" font-family="AdobeGothicStd-Bold, Adobe Gothic Std" font-weight="700" letter-spacing="0.005em"><tspan x="0" y="16">CODING &amp; DESIGN SERVICE</tspan></text>
  </g>
</svg>
