<svg xmlns="http://www.w3.org/2000/svg" xmlns:xlink="http://www.w3.org/1999/xlink" width="93" height="93" viewBox="0 0 93 93">
  <defs>
    <clipPath id="clip-path">
      <rect id="長方形_19" data-name="長方形 19" width="93" height="93" transform="translate(142 2978)" fill="#ffbd64" stroke="#707070" stroke-width="1"/>
    </clipPath>
  </defs>
  <g id="マスクグループ_1" data-name="マスクグループ 1" transform="translate(-142 -2978)" clip-path="url(#clip-path)">
    <g id="java-script" transform="translate(142 2978)">
      <g id="グループ_58" data-name="グループ 58">
        <path id="パス_67" data-name="パス 67" d="M88.738.775A2.013,2.013,0,0,0,87.188,0H5.813a2.937,2.937,0,0,0-1.55.775c-.388.388-.387.775-.387,1.55l7.75,77.5a1.73,1.73,0,0,0,1.162,1.55L47.663,93h1.55l31-11.625c.775-.387,1.162-.775,1.162-1.55l7.75-77.5a2.327,2.327,0,0,0-.387-1.55ZM46.5,70.138a2.938,2.938,0,0,1-.775,1.55,1.525,1.525,0,0,1-1.185.439l-.365-.051L30.613,68.2a3.026,3.026,0,0,1-1.55-1.55l-1.938-9.688c-.387-1.162.387-1.938,1.55-2.325s1.938.387,2.325,1.55l1.55,8.525,10.075,2.713V23.638H21.313A1.831,1.831,0,0,1,19.375,21.7a1.831,1.831,0,0,1,1.938-1.938h23.25A1.831,1.831,0,0,1,46.5,21.7Zm27.125-48.05-1.938,7.75a1.974,1.974,0,0,1-2.325,1.55,1.894,1.894,0,0,1-1.55-2.325c.146-1.379,1.162-5.425,1.162-5.425H53.862V43.013H67.425a2.937,2.937,0,0,1,1.55.775,2.33,2.33,0,0,1,.387,1.55L65.487,66.65c0,.775-.775,1.162-1.162,1.55L52.7,72.075a2.257,2.257,0,0,1-2.713-1.162,1.882,1.882,0,0,1,1.162-2.325L61.612,65.1l3.1-17.825H51.537A1.831,1.831,0,0,1,49.6,45.337V22.087a1.831,1.831,0,0,1,1.938-1.938H70.912a4.4,4.4,0,0,1,1.812.375,1.318,1.318,0,0,1,.9,1.562Z" fill="#ffbd64"/>
      </g>
    </g>
  </g>
</svg>
